HIERARCHY
ROOT hips
{
  OFFSET 0 10.6860622 2.3727825e-15
  CHANNELS 6 Xposition Yposition Zposition Yrotation Xrotation Zrotation
  JOINT leftUpperLeg
  {
    OFFSET 0.6642549969 -0.9402397400000004 0
    CHANNELS 3 Yrotation Xrotation Zrotation
    JOINT leftLowerLeg
    {
      OFFSET 0 -3.997221335632195 0
      CHANNELS 3 Yrotation Xrotation Zrotation
      JOINT leftFoot
      {
        OFFSET -0.13777839790000004 -4.6145792000000005 -0.22186036399999998
        CHANNELS 3 Yrotation Xrotation Zrotation
        JOINT leftToes
        {
          OFFSET -0.03777410834999995 -0.9130806927000008 0.85230013
          CHANNELS 3 Yrotation Xrotation Zrotation
          End Site
          {
            OFFSET -0.03777410834999995 -0.9130806927000008 0.85230013
          }
        }
      }
    }
  }
  JOINT rightUpperLeg
  {
    OFFSET -0.6642778626 -0.9402397400000004 0
    CHANNELS 3 Yrotation Xrotation Zrotation
    JOINT rightLowerLeg
    {
      OFFSET 0 -3.997221452859387 0
      CHANNELS 3 Yrotation Xrotation Zrotation
      JOINT rightFoot
      {
        OFFSET 0.1377926176 -4.6145792000000005 -0.22185782299999995
        CHANNELS 3 Yrotation Xrotation Zrotation
        JOINT rightToes
        {
          OFFSET 0.037780746850000047 -0.9130806927000008 0.85230167
          CHANNELS 3 Yrotation Xrotation Zrotation
          End Site
          {
            OFFSET 0.037780746850000047 -0.9130806927000008 0.85230167
          }
        }
      }
    }
  }
  JOINT spine
  {
    OFFSET 0 0.13988381660000015 0
    CHANNELS 3 Yrotation Xrotation Zrotation
    JOINT chest
    {
      OFFSET 0 0.6191039003973773 0
      CHANNELS 3 Yrotation Xrotation Zrotation
      JOINT upperChest
      {
        OFFSET 0 0.9855186130586943 0
        CHANNELS 3 Yrotation Xrotation Zrotation
        JOINT leftShoulder
        {
          OFFSET 0.1807663869 1.5087829790000005 0
          CHANNELS 3 Yrotation Xrotation Zrotation
          JOINT leftUpperArm
          {
            OFFSET 0.5985063006419806 0 0
            CHANNELS 3 Yrotation Xrotation Zrotation
            JOINT leftLowerArm
            {
              OFFSET 2.2993332369501065 0 0
              CHANNELS 3 Yrotation Xrotation Zrotation
              JOINT leftHand
              {
                OFFSET 2.395047042602395 0 0
                CHANNELS 3 Yrotation Xrotation Zrotation
                JOINT leftIndexProximal
                {
                  OFFSET 0.5766295810000004 0.04556643899499946 0.17265095988184
                  CHANNELS 3 Yrotation Xrotation Zrotation
                  JOINT leftIndexIntermediate
                  {
                    OFFSET 0.2957229000000008 -0.019352197700001517 -0.007932640616999987
                    CHANNELS 3 Yrotation Xrotation Zrotation
                    JOINT leftIndexDistal
                    {
                      OFFSET 0.19008243099999922 -0.012484908149998475 -0.002786250786000012
                      CHANNELS 3 Yrotation Xrotation Zrotation
                      End Site
                      {
                        OFFSET 0.19008243099999922 -0.012484908149998475 -0.002786250786000012
                      }
                    }
                  }
                }
                JOINT leftMiddleProximal
                {
                  OFFSET 0.5834975091000001 0.0524350405149987 0.02204081888183999
                  CHANNELS 3 Yrotation Xrotation Zrotation
                  JOINT leftMiddleIntermediate
                  {
                    OFFSET 0.33880573540000003 -0.019871473270000717 -0.00000971183179999946
                    CHANNELS 3 Yrotation Xrotation Zrotation
                    JOINT leftMiddleDistal
                    {
                      OFFSET 0.20676022730000088 -0.012221336379999448 0.0001471936708000235
                      CHANNELS 3 Yrotation Xrotation Zrotation
                      End Site
                      {
                        OFFSET 0.20676022730000088 -0.012221336379999448 0.0001471936708000235
                      }
                    }
                  }
                }
                JOINT leftLittleProximal
                {
                  OFFSET 0.5344154683999995 -0.012880921405001189 -0.24414037221816004
                  CHANNELS 3 Yrotation Xrotation Zrotation
                  JOINT leftLittleIntermediate
                  {
                    OFFSET 0.21758961730000093 -0.011650919939999227 0.011893592810000034
                    CHANNELS 3 Yrotation Xrotation Zrotation
                    JOINT leftLittleDistal
                    {
                      OFFSET 0.1475273964999999 -0.008152365682999818 0.006001092492999946
                      CHANNELS 3 Yrotation Xrotation Zrotation
                      End Site
                      {
                        OFFSET 0.1475273964999999 -0.008152365682999818 0.006001092492999946
                      }
                    }
                  }
                }
                JOINT leftRingProximal
                {
                  OFFSET 0.5799399463000003 0.026911854694997794 -0.12150566991816003
                  CHANNELS 3 Yrotation Xrotation Zrotation
                  JOINT leftRingIntermediate
                  {
                    OFFSET 0.26167887460000006 -0.013480186499999602 0.010996293000000053
                    CHANNELS 3 Yrotation Xrotation Zrotation
                    JOINT leftRingDistal
                    {
                      OFFSET 0.17667108799999987 -0.008990287899999228 0.0055541023999999065
                      CHANNELS 3 Yrotation Xrotation Zrotation
                      End Site
                      {
                        OFFSET 0.17667108799999987 -0.008990287899999228 0.0055541023999999065
                      }
                    }
                  }
                }
                JOINT leftThumbProximal
                {
                  OFFSET 0.11018806699999972 -0.09448718900500053 0.17047963138184
                  CHANNELS 3 Yrotation Xrotation Zrotation
                  JOINT leftThumbIntermediate
                  {
                    OFFSET 0.31062601459999983 -0.08126270900000132 0.15443142000000007
                    CHANNELS 3 Yrotation Xrotation Zrotation
                    JOINT leftThumbDistal
                    {
                      OFFSET 0.21627175790000086 -0.08833193599999878 0.018771167799999988
                      CHANNELS 3 Yrotation Xrotation Zrotation
                      End Site
                      {
                        OFFSET 0.21627175790000086 -0.08833193599999878 0.018771167799999988
                      }
                    }
                  }
                }
              }
            }
          }
        }
        JOINT neck
        {
          OFFSET 0 1.5463305265074576 0
          CHANNELS 3 Yrotation Xrotation Zrotation
          JOINT head
          {
            OFFSET 0 0.8456443600000344 0
            CHANNELS 3 Yrotation Xrotation Zrotation
            JOINT leftEye
            {
              OFFSET 0.30408573140000006 0.5104519199999995 0.1276382305
              CHANNELS 3 Yrotation Xrotation Zrotation
              End Site
              {
                OFFSET 0.30408573140000006 0.5104519199999995 0.1276382305
              }
            }
            JOINT rightEye
            {
              OFFSET -0.30409491089999996 0.5104519199999995 0.1276379445
              CHANNELS 3 Yrotation Xrotation Zrotation
              End Site
              {
                OFFSET -0.30409491089999996 0.5104519199999995 0.1276379445
              }
            }
            JOINT jaw
            {
              OFFSET -3.155239131000001e-7 -0.11984121820000082 0.60178107
              CHANNELS 3 Yrotation Xrotation Zrotation
              End Site
              {
                OFFSET -3.155239131000001e-7 -0.11984121820000082 0.60178107
              }
            }
          }
        }
        JOINT rightShoulder
        {
          OFFSET -0.1807303465 1.5087829790000005 0
          CHANNELS 3 Yrotation Xrotation Zrotation
          JOINT rightUpperArm
          {
            OFFSET -0.5985063796536958 0 0
            CHANNELS 3 Yrotation Xrotation Zrotation
            JOINT rightLowerArm
            {
              OFFSET -2.2993322059002854 0 0
              CHANNELS 3 Yrotation Xrotation Zrotation
              JOINT rightHand
              {
                OFFSET -2.395045314457259 0 0
                CHANNELS 3 Yrotation Xrotation Zrotation
                JOINT rightIndexProximal
                {
                  OFFSET -0.5764487688300002 0.0441371204405987 0.17361932004999997
                  CHANNELS 3 Yrotation Xrotation Zrotation
                  JOINT rightIndexIntermediate
                  {
                    OFFSET -0.29573011380000047 -0.01934826376999843 -0.007698921482999974
                    CHANNELS 3 Yrotation Xrotation Zrotation
                    JOINT rightIndexDistal
                    {
                      OFFSET -0.19008373999999884 -0.012503266380000655 -0.0026365778999999897
                      CHANNELS 3 Yrotation Xrotation Zrotation
                      End Site
                      {
                        OFFSET -0.19008373999999884 -0.012503266380000655 -0.0026365778999999897
                      }
                    }
                  }
                }
                JOINT rightMiddleProximal
                {
                  OFFSET -0.5834852037300005 0.05211639405060153 0.02307162440000001
                  CHANNELS 3 Yrotation Xrotation Zrotation
                  JOINT rightMiddleIntermediate
                  {
                    OFFSET -0.33880114510000003 -0.019952774050000954 0.0002455003561999819
                    CHANNELS 3 Yrotation Xrotation Zrotation
                    JOINT rightMiddleDistal
                    {
                      OFFSET -0.20675694929999955 -0.012273788999999091 0.00030209124000002766
                      CHANNELS 3 Yrotation Xrotation Zrotation
                      End Site
                      {
                        OFFSET -0.20675694929999955 -0.012273788999999091 0.00030209124000002766
                      }
                    }
                  }
                }
                JOINT rightLittleProximal
                {
                  OFFSET -0.5346811737299992 -0.011214256288399227 -0.24363941305000003
                  CHANNELS 3 Yrotation Xrotation Zrotation
                  JOINT rightLittleIntermediate
                  {
                    OFFSET -0.21757715980000092 -0.011771559690000988 0.01201554387
                    CHANNELS 3 Yrotation Xrotation Zrotation
                    JOINT rightLittleDistal
                    {
                      OFFSET -0.1475201849000004 -0.00822055339600003 0.006082065407000015
                      CHANNELS 3 Yrotation Xrotation Zrotation
                      End Site
                      {
                        OFFSET -0.1475201849000004 -0.00822055339600003 0.006082065407000015
                      }
                    }
                  }
                }
                JOINT rightRingProximal
                {
                  OFFSET -0.5800810755299999 0.027657985680600072 -0.12066365025000003
                  CHANNELS 3 Yrotation Xrotation Zrotation
                  JOINT rightRingIntermediate
                  {
                    OFFSET -0.26166445029999974 -0.013623118409999302 0.011164098990000045
                    CHANNELS 3 Yrotation Xrotation Zrotation
                    JOINT rightRingDistal
                    {
                      OFFSET -0.17666387530000027 -0.009072900100000503 0.005668185599999959
                      CHANNELS 3 Yrotation Xrotation Zrotation
                      End Site
                      {
                        OFFSET -0.17666387530000027 -0.009072900100000503 0.005668185599999959
                      }
                    }
                  }
                }
                JOINT rightThumbProximal
                {
                  OFFSET -0.10997596379000074 -0.09577489355940072 0.16989765924999997
                  CHANNELS 3 Yrotation Xrotation Zrotation
                  JOINT rightThumbIntermediate
                  {
                    OFFSET -0.31036620999999986 -0.08229339117999834 0.15440884469999996
                    CHANNELS 3 Yrotation Xrotation Zrotation
                    JOINT rightThumbDistal
                    {
                      OFFSET -0.21631306399999906 -0.08825326400000111 0.018656797720000014
                      CHANNELS 3 Yrotation Xrotation Zrotation
                      End Site
                      {
                        OFFSET -0.21631306399999906 -0.08825326400000111 0.018656797720000014
                      }
                    }
                  }
                }
              }
            }
          }
        }
      }
    }
  }
}
MOTION
Frames: 4
Frame Time: 0.03333333333333333
0.17290329933166504 -0.20560107939453154 1.1464329957962036 1.5453098366024243 5.882643857239872 -2.5987376941655165 10.36010493012817 -20.350567606776057 6.399579880657839 -5.359256808625599 19.620247913328246 -0.49880669755834056 0.46018986587473426 -5.911638627017135 -5.675298679616554 0.0000039058489609405595 -0.46641246276800785 -5.044771494104103e-8 -7.8391758280087664 -15.25604419102299 -5.469708707547168 -4.495932268565518 10.859915933022501 -4.560529012839713 -0.4552943683174137 -0.8224298689104541 9.68771427739847 8.489648528938215e-9 0.2228756911454312 0.000001278930972427432 0.41456379142128497 0.9513285527713284 0.15912516266452167 1.3129014587346097 5.011188354999048 -1.0315495103758454 0 0 0 -6.073963851150336 2.374039573310138 -10.5734472363659 -19.08293002189285 -4.980966484593153 -57.30880785535279 -10.275144828589347 0.011886815420133966 0.1320278905414495 -9.247605381793605 4.93791299029895 -12.155836934948931 3.2185716534794686 -0.1170176036140504 -26.86045286233146 2.6696390245390904 0.7500498847081005 -31.382466993522275 1.581442525112939 0.25006229031324706 -17.972217430926257 7.9905397506658575 2.3450675999669057 -27.310900972992847 3.3468524882059403 1.2431405226078414 -40.746430238511785 1.838333512231466 0.3410130547877633 -21.01793695512169 11.446726715372408 3.2473626637282136 -46.24573424355537 2.465264288763043 0.6317573280496888 -28.74492263943523 0.8997267073224766 0.0795850963159709 -10.111220747272863 7.977887307643722 2.9361525514002254 -35.80083001324801 3.027807216190764 0.9896810851524865 -36.196400134892016 2.003313485076972 0.40770287496126995 -23.00653049086991 -5.457499142308045 -0.2209079148972414 19.13045148248352 26.486539606265158 17.038185616272536 6.993130381438319 -4.554957833685619 2.0661601633222655 5.840951196270879 0.3092706899622887 -7.348191256205628 -0.4013121478039226 0.9186748675310814 -0.13395153753059755 0.5165416891989831 0 0 0 0 0 0 0 0 0 12.09603835919902 1.6728831267861308 14.596502649595108 6.4312313256535045 -13.934253140450858 59.48164904657164 7.136104250150998 0.005718021439472739 -0.09191417081628356 6.362163684564161 12.302640540853098 14.25093327807478 -2.7852412637864004 0.029772655859696837 22.705532641649675 -1.979409949831633 0.5358778812372569 30.29430872942643 -1.0268790683883033 0.13677676245230444 15.1728774967604 -1.1379903141372683 -0.8720306306502812 24.79872344213633 -2.3013230912624016 0.7457098369007675 35.90463716098056 -1.8072669118096554 0.4410178234225333 27.424874082741436 -1.2534617776084367 -2.144627553324014 41.294165534320015 -2.054872176390174 0.5811057017384956 31.578463468927414 -0.9968931113915754 0.12876382179779416 14.719809501128996 -2.417413310124854 -1.063703303131138 40.50768766408591 -1.4808709419928678 0.29020717416618874 22.17425581888819 -1.380151949120544 0.25076730063512254 20.594967823747147 -9.433224658306408 -12.468360134128453 -4.504466850675406 -25.85562994063561 15.028967001390802 -10.150389515403893 -2.2896993577676845 2.752306821478332 -25.031075109869484
0.10740434378385544 -0.19208369963378935 1.1556729078292847 1.6134216837841004 5.801020529516471 -2.307195361148943 10.482238065290137 -19.512849918752437 6.409355019084585 -5.3977086228059274 18.165551661943095 -0.24792880892636812 0.4726975063320377 -5.186730821306052 -6.174956102058196 -0.000001681236628065925 -0.44970405875149827 0.0000010889452541329091 -7.858334270098763 -14.703827806737886 -5.382599282265753 -4.604526748328229 10.048280315843984 -4.504410195412691 -0.40315690865192033 -0.44484193649159137 9.263833994325966 1.6852456607843016e-7 0.39287558644111237 0.000002373355309960702 0.4155873852569968 0.9857417218272787 0.1561173841269606 1.353127781222791 5.15819848450472 -0.8580001069066496 0 0 0 -5.9098781309868675 2.380051257251279 -10.669466162872329 -18.981505243522705 -5.443776307948826 -57.704905498661105 -9.55443009978793 0.010263179705941799 0.12284845335902436 -8.725841345187881 4.183485496753195 -11.400884813497129 3.2296915945928495 -0.11024345002393962 -26.82311189072785 2.670043142877824 0.7502941382671761 -31.387853568719713 1.5830737333880374 0.2505976915408255 -17.991335964349727 7.995532322844988 2.345870820106201 -27.28565064369932 3.3477090086749555 1.2438825199317047 -40.75895120897237 1.8405190036313914 0.3418528894827267 -21.0442218587937 11.456187139680063 3.2483768683107166 -46.23080610137627 2.464340101020858 0.6312498888778906 -28.732986584965072 0.8996528113119773 0.07957142925434202 -10.110580662441295 7.979201020450773 2.936144216165002 -35.786840018615685 3.027313366233155 0.989315081843947 -36.18954802367304 2.004893643950207 0.40837118323011373 -23.025563513985187 -5.461231128809375 -0.21055659643918734 19.131642803857886 26.502257713823465 17.03874639989455 6.99811415824648 -4.511672947986972 2.078980063736321 5.818101110590475 0.36379521764452377 -7.439246023080947 -0.5365243535814088 1.0057431496249523 -0.163044452799964 0.3726055018310943 0 0 0 0 0 0 0 0 0 12.216894731506432 1.6644500299382965 14.374477151829492 6.807919727088442 -13.950091956029256 59.33366293072792 7.130116800305271 0.005713024278950991 -0.09187112200249711 6.424101839572448 12.402620004907334 14.341921347423787 -2.7878890099644984 0.032120837219424214 22.661116935279882 -1.9786003850153004 0.5354120206336844 30.28049208224614 -1.027203787011156 0.13685277520395628 15.178175486158626 -1.1356991104759202 -0.870680178101897 24.757383287055486 -2.3018377891714255 0.7460905454859109 35.91385244275122 -1.8078993760664417 0.44135555427287776 27.435380250556495 -1.2465603539515069 -2.148165085063142 41.27239856331281 -2.0535802885505388 0.580310637555657 31.556308110603105 -0.9960116376458532 0.1285307543450811 14.706285978745148 -2.4149259378137926 -1.064210745608175 40.485194106986526 -1.4812165724040314 0.2903526643987988 22.179632465903467 -1.3805637060414166 0.25092610405527643 20.60140516131423 -9.462247455568047 -12.477215293173623 -4.4803527476548775 -25.801556776628154 15.003346352508439 -10.165813905556561 -2.3147456015056145 2.75614063837129 -25.000028375882412
-0.02154604345560074 -0.16812453978271513 1.171048641204834 1.9333411931816298 5.686918340315803 -1.5461012264163518 10.749410777712752 -17.712223363326235 6.248043778156857 -5.613555467954424 14.87095345832536 0.15568919682253043 0.46205085897059833 -3.5118070443918565 -7.091272891830475 -4.995918358973676e-9 -0.4718472343689584 -0.0000010671640934216469 -7.949191000662678 -13.599822484554071 -5.386804743456977 -4.914946134817461 8.278111389532693 -4.435223386680007 -0.3019147119574854 0.4283313691062455 8.462766429993136 6.142724754235969e-8 0.676288794860515 0.000002984123721435814 0.36825876240586186 1.0367748137313562 0.08337452820894976 1.2427386142886172 5.396874559354326 -0.7057630013967591 0 0 0 -5.75710134125936 2.3738127017020316 -10.82017742991331 -18.896677892188844 -6.014532118209643 -58.57275800809306 -8.37642888351604 0.007890446830282316 0.10781313416287493 -7.9173604290860755 2.1095156105573243 -10.135637963954998 3.2519620671836194 -0.09677832372018272 -26.748518929268258 2.6708725436050487 0.750797854575066 -31.39860567005966 1.5863172677201167 0.25164568207702337 -18.029573439889933 8.005535358347792 2.3474516270469348 -27.235170117735006 3.349403068900977 1.2453423904015253 -40.7840091399376 1.8449121745630437 0.34354229762388516 -21.096809221206268 11.475090603814117 3.250367012600056 -46.20101033688023 2.4624643626213385 0.630218521181738 -28.709131675674698 0.899548023414019 0.07955157899792867 -10.109280561415488 7.9818590270707395 2.936124981007031 -35.758847707215914 3.0263276180080116 0.9886047430794977 -36.17584380589394 2.0080073652250934 0.4097001958186316 -23.063593188481363 -5.468700086902973 -0.18985555395659318 19.13399479028459 26.53370058076703 17.039892975465616 7.008077355736805 -4.425155310807694 2.1046964283293716 5.772368432926984 0.4609244507748672 -7.559773762919793 -0.7318654453509671 1.2187717927660042 -0.3973447441768655 0.10839741022649506 0 0 0 0 0 0 0 0 0 12.433779240519335 1.6436319036707245 14.043035691018021 7.694222168202341 -13.80476033100146 58.99782809438736 7.319479857749569 0.006016567909092096 -0.09428787079103436 6.6340017850235675 12.584047635260648 14.654444862703347 -2.7931665478656567 0.036817366857377805 22.572311579705463 -1.9769651383766478 0.534454898661595 30.25284232441269 -1.0279252500575717 0.1370554536424535 15.188755598983098 -1.131099662683749 -0.8679190765065585 24.674698721415606 -2.3028515540571295 0.7468184492924267 35.93223503055206 -1.8091844646411834 0.4420137265887402 27.45638652699385 -1.232703917616174 -2.155189551235459 41.22891611023476 -2.0509950207801873 0.5787244584296171 31.511949057829924 -0.9942248474526799 0.12807226340730343 14.679250659815027 -2.4099275154556787 -1.06518304149212 40.44022470794942 -1.4818908331209721 0.2906136290037394 22.190397534163438 -1.3814021567370662 0.2512348529146288 20.614273046902788 -9.52031770486119 -12.494932641445237 -4.432132069253562 -25.693419806029322 14.95214076978881 -10.196753435941467 -2.3648339073582614 2.7638831014185823 -24.937934276486757
-0.20605294406414032 -0.15849624388427763 1.1849697828292847 2.9588482280241215 5.746674476610378 -0.09341903787985714 10.99686485064266 -15.446822356426255 5.6768330946963115 -6.217347785674612 10.112691239126931 0.5536190621315621 0.35374068784717594 -0.9678888547854174 -8.296942461626989 0.0000011492089615792265 -0.7528695012362983 -1.484300552588787e-8 -7.965853788727741 -14.252521204220658 -6.021911101266275 -5.691402052310578 9.761589532684047 -4.650636976936242 -0.25858500936915074 -0.43724032438021504 9.205499461151884 0.00016325930772473674 0.17758582974396533 0.012591265861086092 0.1781721083247535 1.05306570978109 -0.2458726349271479 0.6947452671820957 5.515991531304015 -0.6985518156170545 0 0 0 -5.977566345792655 2.318887574664849 -11.263103853243157 -19.30247882818231 -5.985495009049076 -59.70101178200465 -7.935580980732935 0.007091578159767694 0.10219599448420719 -8.42363995665105 1.6179201279733362 -9.076548773138407 3.2854272787955616 -0.07666782909564644 -26.636595011958832 2.672102864692527 0.7515445971647856 -31.414750826660228 1.5912015182844839 0.25324588286582617 -18.086914468403574 8.020554444967045 2.349810877920446 -27.15944012244135 3.3519487654170534 1.24753764172014 -40.82161041825589 1.8515054572000518 0.34609339279734813 -21.17567858063245 11.503465764280435 3.25334336419521 -46.15628203696727 2.4596449650975853 0.6286735245368206 -28.673307925111697 0.8993919617453314 0.07952650604301698 -10.107350220718581 7.985825666730579 2.9361102340528116 -35.71689493173454 3.0248382474974034 0.9875168736990221 -36.15527646249823 2.0126997543035348 0.41169602303141994 -23.120655322424902 -5.479902618461758 -0.15880532986302925 19.137509672876313 26.580857601904246 17.041550343237837 7.023001148672391 -4.295523743966047 2.1436458801050877 5.703858565982647 0.5211702257115101 -7.67023933802273 -0.8358136072823545 1.3886999154854094 -0.8693583307469822 -0.3294173528315754 0 0 0 0 0 0 0 0 0 12.41682173829789 1.6090803860065384 14.245160247425535 9.793412108052614 -13.053630539873309 57.67228023111407 7.827060804852134 0.006881676156373091 -0.10078654374327457 6.625101091997258 12.578924926191029 15.082267303451367 -2.8011370297064526 0.04382067371273586 22.439067122373594 -1.9745035707919334 0.5330303155207379 30.211396095325117 -1.0289749530483099 0.1373354922012512 15.204613927581873 -1.1242192706402436 -0.8637899691166319 24.55069300570505 -2.3043869801584274 0.7479351735044427 35.95985447846896 -1.8110926308935644 0.4429971697569013 27.487885520702083 -1.2119140247248403 -2.165712961546203 41.163687697412406 -2.047107751313874 0.5763478053859216 31.445436593207024 -0.9915238249153782 0.12736677781845127 14.638686317414905 -2.402442353380762 -1.0666437808076739 40.372772589376915 -1.482914458339585 0.291042495703251 22.206552606858114 -1.382625264698173 0.2517005108823086 20.633547098061566 -9.60749289747432 -12.521448408865577 -4.359778291503242 -25.53112651314371 14.875197164640522 -10.243170370415516 -2.4399967270164855 2.7757007549169157 -24.844851290474352
